<svg xmlns="http://www.w3.org/2000/svg" xmlns:xlink="http://www.w3.org/1999/xlink" id="Layer_1" x="0px" y="0px" viewBox="0 0 192 27" style="enable-background:new 0 0 192 27;" xml:space="preserve"><g>	<path d="M8.1,1.2L0.1,23h2.8L5,16.8h8.8l2.2,6.2h2.8l-8-21.8H8.1z M5.9,14.5l3.5-9.8h0.2l3.5,9.8H5.9z"></path>	<polygon points="32,26.3 34.3,26.3 41.3,0.2 39,0.2  "></polygon>	<path d="M67.9,13.6c1.1-0.6,1.9-1.3,2.4-2.3c0.5-1,0.8-2.1,0.8-3.4c0-1.3-0.3-2.4-0.8-3.4c-0.5-1-1.3-1.8-2.4-2.4  c-1.1-0.6-2.5-0.9-4.2-0.9h-7.4V23H59v-8.5h4.8c0.2,0,0.4,0,0.5,0l4.6,8.5H72L67,14C67.3,13.9,67.6,13.8,67.9,13.6z M59,3.5h4.6  c1.2,0,2.1,0.2,2.8,0.5c0.7,0.4,1.2,0.9,1.6,1.5c0.3,0.7,0.5,1.4,0.5,2.3c0,0.9-0.2,1.6-0.5,2.3c-0.3,0.6-0.8,1.1-1.6,1.4  c-0.7,0.3-1.6,0.5-2.8,0.5H59V3.5z"></path>	<path d="M93.3,1.2l-8,21.8h2.8l2.2-6.2h8.8l2.2,6.2h2.8l-8-21.8H93.3z M91.1,14.5l3.5-9.8h0.2l3.5,9.8H91.1z"></path>	<polygon points="130,19.3 129.7,19.3 122.3,1.2 119.2,1.2 119.2,23 121.6,23 121.6,6.4 121.9,6.4 128.7,23 131.1,23 137.9,6.4   138.1,6.4 138.1,23 140.6,23 140.6,1.2 137.4,1.2  "></polygon>	<rect x="157.6" y="1.2" width="2.6" height="21.8"></rect>	<path d="M191.4,14.5c-0.4-0.7-1-1.3-1.6-1.7c-0.6-0.5-1.3-0.8-2-1.1c-0.7-0.3-1.3-0.5-1.9-0.6l-2.2-0.6c-0.4-0.1-0.8-0.2-1.3-0.4  c-0.5-0.2-0.9-0.4-1.4-0.7c-0.4-0.3-0.8-0.6-1.1-1c-0.3-0.4-0.4-0.9-0.4-1.5c0-0.7,0.2-1.3,0.6-1.9c0.4-0.5,1-1,1.7-1.3  c0.7-0.3,1.6-0.5,2.5-0.5c1.3,0,2.4,0.3,3.3,0.9c0.9,0.6,1.4,1.4,1.6,2.5h2.6c0-1.1-0.4-2.1-1-3c-0.6-0.9-1.5-1.5-2.6-2  c-1.1-0.5-2.3-0.8-3.8-0.8c-1.4,0-2.7,0.3-3.8,0.8c-1.1,0.5-2,1.2-2.7,2.1c-0.7,0.9-1,2-1,3.2c0,1.5,0.5,2.7,1.5,3.6  c1,0.9,2.3,1.6,4,2.1l2.7,0.8c0.8,0.2,1.5,0.5,2.1,0.7c0.7,0.3,1.2,0.7,1.6,1.1c0.4,0.5,0.6,1,0.6,1.8c0,0.8-0.2,1.5-0.7,2.1  c-0.5,0.6-1.1,1.1-1.9,1.4c-0.8,0.3-1.7,0.5-2.7,0.5c-0.9,0-1.7-0.1-2.4-0.4c-0.7-0.3-1.4-0.7-1.9-1.2c-0.5-0.5-0.8-1.2-0.8-2h-2.7  c0.1,1.2,0.5,2.2,1.1,3.1c0.7,0.9,1.5,1.6,2.7,2.1c1.1,0.5,2.5,0.8,4.1,0.8c1.7,0,3.1-0.3,4.3-0.8c1.2-0.6,2.1-1.3,2.7-2.3  c0.6-1,0.9-2,0.9-3.2C192,16.1,191.8,15.2,191.4,14.5z"></path></g></svg>