<svg xmlns="http://www.w3.org/2000/svg" viewBox="0 0 41 41"><path fill-rule="evenodd" clip-rule="evenodd" d="M20.5 8.2a4.1 4.1 0 1 0-4.065-4.633A12.579 12.579 0 0 0 8.023 13.9L6.029 29.764A6.03 6.03 0 0 0 0 35.794h20.5V8.2Z"></path><path fill-rule="evenodd" clip-rule="evenodd" d="M20.5 0v35.794h-5.79a6.032 6.032 0 0 0 5.79 4.341 6.122 6.122 0 0 0 1.151-.11 6.038 6.038 0 0 0 4.64-4.231H41c0-3.33-2.7-6.03-6.03-6.03l-1.993-15.863a12.579 12.579 0 0 0-8.411-10.334A4.1 4.1 0 0 0 20.5 0Z" fill="#181818"></path></svg>