<svg xmlns="http://www.w3.org/2000/svg" xmlns:xlink="http://www.w3.org/1999/xlink" id="Layer_1" x="0px" y="0px" viewBox="0 0 93 23" style="enable-background:new 0 0 93 23;" xml:space="preserve"><style type="text/css">	.st0{fill:#181818;}</style><g>	<path class="st0" d="M12.5,11.9c-0.6-0.5-1.3-0.8-2-1.1c-0.7-0.3-1.5-0.6-2.2-0.8C7.6,9.7,7,9.4,6.4,9.1C5.8,8.8,5.3,8.4,4.9,8  C4.5,7.6,4.4,7,4.4,6.3c0-0.9,0.3-1.6,1-2C6,3.8,6.9,3.5,8,3.5c0.9,0,1.7,0.2,2.4,0.5c0.7,0.4,1.4,0.9,2,1.6l1.9-1.9  c-0.7-0.9-1.6-1.6-2.6-2.1c-1.1-0.5-2.3-0.8-3.7-0.8c-1.2,0-2.4,0.2-3.4,0.7C3.7,2,3,2.6,2.4,3.5c-0.6,0.8-0.8,1.8-0.8,3  c0,1.1,0.2,1.9,0.5,2.6c0.4,0.7,0.9,1.3,1.5,1.7c0.6,0.4,1.3,0.8,2,1.1c0.7,0.3,1.4,0.6,2.2,0.8c0.7,0.2,1.4,0.5,2,0.8  c0.6,0.3,1.1,0.7,1.5,1.2c0.4,0.5,0.5,1.1,0.5,1.9c0,0.9-0.4,1.7-1.1,2.2c-0.7,0.5-1.7,0.8-3,0.8c-1.3,0-2.3-0.2-3.2-0.7  c-0.9-0.5-1.6-1.2-2.3-2.1l-1.9,1.9c0.9,1.1,1.9,2,3.1,2.6c1.2,0.6,2.6,0.9,4.2,0.9c2.2,0,3.9-0.5,5.1-1.6c1.3-1,1.9-2.5,1.9-4.3  c0-1.1-0.2-2-0.6-2.7C13.6,12.9,13.1,12.3,12.5,11.9z"></path>	<polygon class="st0" points="31.2,9.9 20.5,9.9 20.5,1.2 17.7,1.2 17.7,22 20.5,22 20.5,12.5 31.2,12.5 31.2,22 34,22 34,1.2   31.2,1.2  "></polygon>	<path class="st0" d="M45.3,1.2L36.8,22h3l1.9-4.7h9.2l1.9,4.7h3.1L47.3,1.2H45.3z M42.7,14.8l3.7-9.1l3.6,9.1H42.7z"></path>	<path class="st0" d="M69.5,12.2c1-0.5,1.7-1.2,2.2-2.1c0.5-0.9,0.8-1.9,0.8-3.1c0-1.1-0.3-2.2-0.8-3c-0.5-0.9-1.3-1.6-2.2-2.1  c-1-0.5-2.1-0.8-3.5-0.8h-4.8h-0.9h-1.9V22h2.8v-9.1H63l7.3,9.1h3.6l-7.5-9.1C67.6,12.9,68.6,12.6,69.5,12.2z M61.2,3.6h4.7  c1.2,0,2.2,0.3,2.8,1c0.7,0.7,1,1.5,1,2.5c0,1.1-0.3,1.9-1,2.5c-0.7,0.6-1.6,0.9-2.8,0.9h-4.7V3.6z"></path>	<polygon class="st0" points="92.9,22 82.3,11.1 92.6,1.2 88.9,1.2 79.1,10.7 79.1,1.2 76.3,1.2 76.3,22 79.1,22 79.1,11.6 89.1,22    "></polygon></g></svg>