<svg xmlns="http://www.w3.org/2000/svg" id="Layer_1" width="159.88" height="34.44" viewBox="0 0 159.88 34.44"><defs><style>.cls-1{fill:#fff;}</style></defs><path class="cls-1" d="M43.39,27V5.07h-8.79V2.68h20.26v2.4h-8.79V27h-2.68Z"></path><path class="cls-1" d="M59.12,27.31c-1.27,0-2.4-.22-3.37-.66-.95-.44-1.7-1.05-2.26-1.84-.53-.79-.8-1.7-.8-2.75,0-1.64,.63-2.94,1.88-3.89,1.25-.95,2.94-1.42,5.07-1.42,1.88,0,3.58,.39,5.11,1.18v-2.29c0-1.39-.39-2.43-1.18-3.13-.79-.72-1.93-1.08-3.44-1.08-.86,0-1.73,.13-2.61,.38-.86,.23-1.81,.61-2.85,1.15l-.97-1.98c1.25-.6,2.41-1.04,3.47-1.32,1.07-.28,2.13-.42,3.2-.42,2.2,0,3.89,.52,5.07,1.56,1.2,1.04,1.81,2.54,1.81,4.48v11.71h-2.5v-1.7c-.79,.67-1.66,1.18-2.61,1.53-.93,.32-1.93,.49-3.02,.49Zm-3.96-5.32c0,.97,.41,1.77,1.22,2.4,.83,.6,1.9,.9,3.2,.9,1.04,0,1.99-.16,2.85-.49,.86-.32,1.63-.83,2.33-1.53v-3.27c-.72-.49-1.48-.83-2.29-1.04-.81-.23-1.73-.35-2.75-.35-1.39,0-2.5,.31-3.34,.94-.81,.6-1.22,1.41-1.22,2.43Z"></path><path class="cls-1" d="M71.59,34.44c-.32,0-.64-.02-.94-.07-.28-.02-.51-.06-.69-.1v-2.33c.39,.09,.88,.14,1.46,.14,1.53,0,2.69-.9,3.47-2.71l1.04-2.4-7.09-17.37h2.85l5.63,14.28,6.08-14.28h2.78l-8.69,20.12c-.49,1.11-1.01,2.02-1.56,2.71-.56,.69-1.19,1.2-1.91,1.53-.69,.32-1.51,.49-2.43,.49Z"></path><path class="cls-1" d="M95.78,27.31c-1.64,0-3.14-.39-4.48-1.18-1.34-.81-2.41-1.9-3.2-3.27-.79-1.37-1.18-2.9-1.18-4.59s.39-3.21,1.18-4.55c.79-1.37,1.85-2.46,3.2-3.27,1.34-.81,2.84-1.22,4.48-1.22,1.27,0,2.5,.24,3.68,.73,1.18,.46,2.22,1.14,3.13,2.02l-1.63,1.88c-.69-.74-1.49-1.3-2.4-1.67-.88-.39-1.8-.59-2.75-.59-1.18,0-2.26,.3-3.23,.9-.95,.58-1.71,1.38-2.29,2.4-.56,1-.83,2.12-.83,3.37s.28,2.39,.83,3.41c.58,1.02,1.36,1.83,2.33,2.43,.97,.58,2.05,.87,3.23,.87,.95,0,1.84-.19,2.68-.56,.86-.37,1.66-.92,2.4-1.63l1.6,1.74c-.93,.88-1.97,1.56-3.13,2.05-1.16,.49-2.36,.73-3.61,.73Z"></path><path class="cls-1" d="M112.77,27.35c-1.65,0-3.15-.39-4.52-1.18-1.34-.81-2.41-1.9-3.2-3.27-.79-1.37-1.18-2.9-1.18-4.59s.39-3.22,1.18-4.59c.79-1.37,1.85-2.44,3.2-3.23,1.37-.81,2.87-1.22,4.52-1.22s3.17,.41,4.52,1.22c1.34,.79,2.41,1.86,3.2,3.23,.79,1.37,1.18,2.9,1.18,4.59s-.39,3.22-1.18,4.59c-.79,1.37-1.85,2.46-3.2,3.27-1.34,.79-2.85,1.18-4.52,1.18Zm0-2.29c1.18,0,2.25-.3,3.2-.9,.97-.6,1.74-1.41,2.29-2.43,.58-1.02,.87-2.15,.87-3.41s-.29-2.41-.87-3.41c-.56-1.02-1.32-1.83-2.29-2.43-.95-.6-2.02-.9-3.2-.9s-2.26,.3-3.23,.9c-.95,.6-1.71,1.41-2.29,2.43-.56,1-.83,2.13-.83,3.41s.28,2.39,.83,3.41c.58,1.02,1.34,1.83,2.29,2.43,.97,.6,2.05,.9,3.23,.9Z"></path><path class="cls-1" d="M132.99,27.35c-1.65,0-3.15-.39-4.52-1.18-1.34-.81-2.41-1.9-3.2-3.27-.79-1.37-1.18-2.9-1.18-4.59s.39-3.22,1.18-4.59c.79-1.37,1.85-2.44,3.2-3.23,1.37-.81,2.87-1.22,4.52-1.22s3.17,.41,4.52,1.22c1.34,.79,2.41,1.86,3.2,3.23,.79,1.37,1.18,2.9,1.18,4.59s-.39,3.22-1.18,4.59c-.79,1.37-1.85,2.46-3.2,3.27-1.34,.79-2.85,1.18-4.52,1.18Zm0-2.29c1.18,0,2.25-.3,3.2-.9,.97-.6,1.74-1.41,2.29-2.43,.58-1.02,.87-2.15,.87-3.41s-.29-2.41-.87-3.41c-.56-1.02-1.32-1.83-2.29-2.43-.95-.6-2.01-.9-3.2-.9s-2.26,.3-3.23,.9c-.95,.6-1.71,1.41-2.29,2.43-.56,1-.83,2.13-.83,3.41s.28,2.39,.83,3.41c.58,1.02,1.34,1.83,2.29,2.43,.97,.6,2.05,.9,3.23,.9Z"></path><path class="cls-1" d="M145.11,27V9.59h2.57v2.05c1.37-1.6,3.2-2.4,5.49-2.4,1.32,0,2.48,.29,3.47,.87,1.02,.56,1.81,1.34,2.36,2.36,.58,1,.87,2.17,.87,3.51v11.02h-2.54v-10.49c0-1.55-.44-2.77-1.32-3.65-.86-.9-2.04-1.36-3.54-1.36-1.04,0-1.97,.23-2.78,.69-.81,.46-1.48,1.12-2.02,1.98v12.82h-2.57Z"></path><circle class="cls-1" cx="18" cy="16" r="11"></circle><circle class="cls-1" cx="4" cy="4" r="4"></circle></svg>