<svg xmlns="http://www.w3.org/2000/svg" width="160" height="35" viewBox="0 0 160 35" fill="none"><path d="M43.3891 27V5.07345H34.5977V2.67578H54.8563V5.07345H46.0648V27H43.3891Z" fill="#181818"></path><path d="M59.1206 27.3127C57.8465 27.3127 56.7229 27.0927 55.75 26.6525C54.8002 26.2124 54.0473 25.5985 53.4913 24.8108C52.9585 24.0232 52.6921 23.1081 52.6921 22.0657C52.6921 20.4209 53.3175 19.1236 54.5685 18.1738C55.8195 17.224 57.5106 16.7491 59.6418 16.7491C61.5183 16.7491 63.221 17.1429 64.7499 17.9305V15.6371C64.7499 14.2472 64.3561 13.2047 63.5685 12.5097C62.7808 11.7916 61.6341 11.4325 60.1283 11.4325C59.2712 11.4325 58.4025 11.5599 57.5222 11.8147C56.665 12.0464 55.7152 12.4286 54.6727 12.9615L53.6998 10.9808C54.9507 10.3785 56.109 9.9383 57.1747 9.66031C58.2403 9.38232 59.3059 9.24332 60.3716 9.24332C62.5723 9.24332 64.2634 9.76455 65.4449 10.807C66.6495 11.8495 67.2518 13.3437 67.2518 15.2896V27H64.7499V25.2973C63.9623 25.9691 63.0936 26.4788 62.1438 26.8263C61.2171 27.1506 60.2094 27.3127 59.1206 27.3127ZM55.1592 21.9962C55.1592 22.9691 55.5646 23.7684 56.3754 24.3938C57.2094 24.9962 58.275 25.2973 59.5723 25.2973C60.6148 25.2973 61.5646 25.1351 62.4217 24.8108C63.2789 24.4865 64.0549 23.9769 64.7499 23.2819V20.0155C64.0318 19.529 63.2673 19.1815 62.4565 18.973C61.6457 18.7414 60.7306 18.6255 59.7113 18.6255C58.3214 18.6255 57.2094 18.9383 56.3754 19.5637C55.5646 20.1661 55.1592 20.9769 55.1592 21.9962Z" fill="#181818"></path><path d="M71.5906 34.4363C71.2662 34.4363 70.9535 34.4131 70.6523 34.3668C70.3744 34.3436 70.1427 34.3089 69.9574 34.2625V31.9343C70.3512 32.027 70.8377 32.0733 71.4168 32.0733C72.9458 32.0733 74.1041 31.1699 74.8917 29.3629L75.9342 26.9653L68.8454 9.59081H71.6948L77.3241 23.8726L83.4052 9.59081H86.1851L77.4979 29.7104C77.0114 30.8224 76.4902 31.7259 75.9342 32.4208C75.3782 33.1158 74.7411 33.6255 74.023 33.9498C73.328 34.2741 72.5172 34.4363 71.5906 34.4363Z" fill="#181818"></path><path d="M95.7799 27.3127C94.1351 27.3127 92.6409 26.9189 91.2973 26.1313C89.9536 25.3205 88.888 24.2317 88.1004 22.8649C87.3127 21.4981 86.9189 19.9691 86.9189 18.278C86.9189 16.5869 87.3127 15.0696 88.1004 13.7259C88.888 12.3591 89.9536 11.2703 91.2973 10.4595C92.6409 9.64873 94.1351 9.24332 95.7799 9.24332C97.054 9.24332 98.2818 9.48656 99.4632 9.97305C100.645 10.4364 101.687 11.1082 102.591 11.9885L100.957 13.8649C100.262 13.1236 99.4632 12.5676 98.5598 12.197C97.6795 11.8032 96.7644 11.6062 95.8146 11.6062C94.6332 11.6062 93.5559 11.9074 92.583 12.5097C91.6332 13.0889 90.8687 13.8881 90.2895 14.9074C89.7336 15.9035 89.4556 17.0271 89.4556 18.278C89.4556 19.529 89.7336 20.6641 90.2895 21.6834C90.8687 22.7027 91.6447 23.5135 92.6177 24.1158C93.5907 24.695 94.6679 24.9846 95.8494 24.9846C96.7992 24.9846 97.6911 24.7992 98.525 24.4286C99.3822 24.0579 100.181 23.5135 100.923 22.7954L102.521 24.5328C101.595 25.4131 100.552 26.0965 99.3938 26.583C98.2355 27.0695 97.0308 27.3127 95.7799 27.3127Z" fill="#181818"></path><path d="M112.774 27.3475C111.129 27.3475 109.623 26.9537 108.256 26.166C106.913 25.3552 105.847 24.2664 105.059 22.8996C104.272 21.5328 103.878 20.0039 103.878 18.3128C103.878 16.6217 104.272 15.0927 105.059 13.7259C105.847 12.3591 106.913 11.2819 108.256 10.4943C109.623 9.68347 111.129 9.27807 112.774 9.27807C114.442 9.27807 115.947 9.68347 117.291 10.4943C118.635 11.2819 119.7 12.3591 120.488 13.7259C121.276 15.0927 121.669 16.6217 121.669 18.3128C121.669 20.0039 121.276 21.5328 120.488 22.8996C119.7 24.2664 118.635 25.3552 117.291 26.166C115.947 26.9537 114.442 27.3475 112.774 27.3475ZM112.774 25.0541C113.955 25.0541 115.021 24.7529 115.971 24.1506C116.944 23.5483 117.708 22.7375 118.264 21.7182C118.843 20.6989 119.133 19.5637 119.133 18.3128C119.133 17.0387 118.843 15.9035 118.264 14.9074C117.708 13.8881 116.944 13.0773 115.971 12.475C115.021 11.8727 113.955 11.5715 112.774 11.5715C111.592 11.5715 110.515 11.8727 109.542 12.475C108.592 13.0773 107.828 13.8881 107.249 14.9074C106.693 15.9035 106.415 17.0387 106.415 18.3128C106.415 19.5637 106.693 20.6989 107.249 21.7182C107.828 22.7375 108.592 23.5483 109.542 24.1506C110.515 24.7529 111.592 25.0541 112.774 25.0541Z" fill="#181818"></path><path d="M132.991 27.3475C131.346 27.3475 129.84 26.9537 128.473 26.166C127.13 25.3552 126.064 24.2664 125.276 22.8996C124.489 21.5328 124.095 20.0039 124.095 18.3128C124.095 16.6217 124.489 15.0927 125.276 13.7259C126.064 12.3591 127.13 11.2819 128.473 10.4943C129.84 9.68347 131.346 9.27807 132.991 9.27807C134.658 9.27807 136.164 9.68347 137.508 10.4943C138.851 11.2819 139.917 12.3591 140.705 13.7259C141.492 15.0927 141.886 16.6217 141.886 18.3128C141.886 20.0039 141.492 21.5328 140.705 22.8996C139.917 24.2664 138.851 25.3552 137.508 26.166C136.164 26.9537 134.658 27.3475 132.991 27.3475ZM132.991 25.0541C134.172 25.0541 135.238 24.7529 136.187 24.1506C137.16 23.5483 137.925 22.7375 138.481 21.7182C139.06 20.6989 139.35 19.5637 139.35 18.3128C139.35 17.0387 139.06 15.9035 138.481 14.9074C137.925 13.8881 137.16 13.0773 136.187 12.475C135.238 11.8727 134.172 11.5715 132.991 11.5715C131.809 11.5715 130.732 11.8727 129.759 12.475C128.809 13.0773 128.045 13.8881 127.465 14.9074C126.909 15.9035 126.631 17.0387 126.631 18.3128C126.631 19.5637 126.909 20.6989 127.465 21.7182C128.045 22.7375 128.809 23.5483 129.759 24.1506C130.732 24.7529 131.809 25.0541 132.991 25.0541Z" fill="#181818"></path><path d="M145.111 27V9.59081H147.682V11.641C149.049 10.0425 150.879 9.24332 153.173 9.24332C154.493 9.24332 155.651 9.5329 156.647 10.112C157.667 10.668 158.454 11.4557 159.01 12.475C159.59 13.4711 159.879 14.641 159.879 15.9846V27H157.342V16.5058C157.342 14.9537 156.902 13.7375 156.022 12.8572C155.165 11.9537 153.983 11.502 152.478 11.502C151.435 11.502 150.508 11.7337 149.698 12.197C148.887 12.6603 148.215 13.3205 147.682 14.1777V27H145.111Z" fill="#181818"></path><circle cx="18" cy="16" r="11" fill="#181818"></circle><circle cx="4" cy="4" r="4" fill="#181818"></circle></svg>