<svg xmlns="http://www.w3.org/2000/svg" id="Layer_1" width="191.92" height="26.12" viewBox="0 0 191.92 26.12"><defs><style>.cls-1{fill:#fff;}</style></defs><path class="cls-1" d="M8.01,1.02L0,22.84H2.77l2.19-6.18H13.79l2.19,6.18h2.77L10.74,1.02h-2.73Zm-2.22,13.3l3.49-9.84h.17l3.49,9.84H5.8Z"></path><polygon class="cls-1" points="31.89 26.12 34.19 26.12 41.22 0 38.92 0 31.89 26.12"></polygon><path class="cls-1" d="M67.82,13.48c1.09-.57,1.89-1.35,2.42-2.34,.53-.99,.79-2.13,.79-3.42s-.26-2.43-.79-3.44c-.53-1.01-1.34-1.8-2.43-2.38-1.09-.58-2.49-.87-4.2-.87h-7.37V22.84h2.64V14.32h4.77c.19,0,.36-.02,.55-.02l4.61,8.55h3.07l-4.93-9c.31-.11,.6-.23,.87-.37ZM58.88,3.37h4.64c1.18,0,2.13,.18,2.84,.54,.72,.36,1.24,.86,1.57,1.51,.33,.65,.49,1.42,.49,2.29s-.16,1.63-.49,2.26c-.32,.62-.84,1.11-1.56,1.45-.71,.34-1.65,.51-2.81,.51h-4.69V3.37Z"></path><path class="cls-1" d="M93.27,1.02l-8.01,21.82h2.77l2.19-6.18h8.82l2.19,6.18h2.77L95.99,1.02h-2.73Zm-2.22,13.3l3.49-9.84h.17l3.49,9.84h-7.16Z"></path><polygon class="cls-1" points="129.93 19.13 129.67 19.13 122.26 1.02 119.1 1.02 119.1 22.84 121.58 22.84 121.58 6.26 121.79 6.26 128.61 22.84 130.99 22.84 137.81 6.26 138.02 6.26 138.02 22.84 140.5 22.84 140.5 1.02 137.34 1.02 129.93 19.13"></polygon><rect class="cls-1" x="157.49" y="1.02" width="2.64" height="21.82"></rect><path class="cls-1" d="M191.29,14.33c-.42-.7-.95-1.28-1.6-1.73-.64-.45-1.31-.81-2.01-1.08-.7-.26-1.33-.47-1.9-.62l-2.22-.6c-.4-.11-.85-.24-1.33-.42-.48-.18-.95-.4-1.39-.67-.44-.28-.8-.62-1.09-1.03-.28-.42-.42-.92-.42-1.5,0-.7,.2-1.32,.6-1.86,.41-.55,.97-.98,1.68-1.29,.72-.31,1.57-.47,2.53-.47,1.32,0,2.44,.3,3.35,.89,.91,.6,1.43,1.43,1.56,2.51h2.56c-.04-1.1-.38-2.08-1.02-2.95-.64-.87-1.51-1.55-2.6-2.05-1.09-.5-2.34-.76-3.75-.76s-2.65,.26-3.78,.77c-1.12,.5-2.02,1.21-2.68,2.13-.66,.91-.99,1.97-.99,3.2,0,1.47,.5,2.66,1.49,3.57,.99,.91,2.34,1.61,4.05,2.1l2.68,.77c.77,.21,1.48,.46,2.14,.75,.66,.28,1.19,.65,1.6,1.11,.41,.45,.61,1.04,.61,1.77,0,.8-.23,1.49-.7,2.09-.47,.59-1.11,1.05-1.91,1.39-.8,.33-1.71,.49-2.72,.49-.87,0-1.68-.13-2.43-.38-.74-.26-1.36-.66-1.85-1.19-.48-.54-.76-1.22-.83-2.05h-2.73c.09,1.19,.45,2.24,1.1,3.14,.65,.9,1.55,1.61,2.68,2.11,1.14,.5,2.5,.76,4.06,.76,1.68,0,3.1-.28,4.27-.84,1.18-.56,2.07-1.32,2.68-2.27,.62-.95,.93-2.02,.93-3.2,0-1.02-.21-1.89-.63-2.59Z"></path></svg>