<svg xmlns="http://www.w3.org/2000/svg" width="138" height="33" viewBox="0 0 138 33" fill="none"><path d="M0.885742 24.6494V24.302L1.61547 24.024C2.35678 23.7228 2.72743 23.1321 2.72743 22.2518V4.11284C2.72743 3.18621 2.35678 2.59548 1.61547 2.34065L0.885742 2.06266V1.71517H10.0594C12.515 1.71517 14.6231 2.17849 16.3837 3.10513C18.1675 4.0086 19.5343 5.31747 20.4841 7.03175C21.4571 8.72286 21.9436 10.7615 21.9436 13.1476C21.9436 15.58 21.4223 17.6533 20.3799 19.3676C19.3374 21.0819 17.878 22.3908 16.0015 23.2942C14.1482 24.1977 11.9591 24.6494 9.43397 24.6494H0.885742ZM7.93977 23.9545H9.43397C11.1019 23.9545 12.4455 23.6301 13.4648 22.9815C14.4841 22.3097 15.2255 21.1977 15.6888 19.6456C16.1753 18.0703 16.4185 15.9159 16.4185 13.1823C16.4185 10.4487 16.1753 8.30588 15.6888 6.75376C15.2255 5.17848 14.4957 4.06651 13.4996 3.41787C12.5035 2.74605 11.1946 2.41015 9.57296 2.41015H7.93977V23.9545Z" fill="white"></path><path d="M26.8236 5.60705C26.036 5.60705 25.3642 5.3638 24.8082 4.87732C24.2754 4.36767 24.009 3.73061 24.009 2.96613C24.009 2.17849 24.2754 1.54143 24.8082 1.05494C25.3642 0.568457 26.036 0.325215 26.8236 0.325215C27.6113 0.325215 28.2715 0.568457 28.8043 1.05494C29.3371 1.54143 29.6035 2.17849 29.6035 2.96613C29.6035 3.73061 29.3371 4.36767 28.8043 4.87732C28.2715 5.3638 27.6113 5.60705 26.8236 5.60705ZM22.7232 24.6494V24.302L23.2097 24.163C23.673 24.024 23.9858 23.8155 24.148 23.5375C24.3333 23.2595 24.4259 22.8888 24.4259 22.4255V11.5491C24.4259 11.0626 24.3333 10.7036 24.148 10.4719C23.9858 10.2171 23.673 10.0433 23.2097 9.95066L22.7232 9.84641V9.49892L29.0823 7.44874L29.4298 7.79623L29.3255 12.7306V22.4603C29.3255 22.9236 29.4066 23.2942 29.5688 23.5722C29.7541 23.8502 30.0668 24.0587 30.507 24.1977L30.8545 24.302V24.6494H22.7232Z" fill="white"></path><path d="M39.2732 18.6379C37.6748 18.6379 36.3196 18.3715 35.2076 17.8387V19.0201C35.2076 19.7383 35.5667 20.1668 36.2848 20.3058L42.8176 21.522C43.9064 21.7305 44.891 22.0085 45.7713 22.356C46.6516 22.6803 47.3581 23.1552 47.8909 23.7807C48.4238 24.383 48.6902 25.217 48.6902 26.2826C48.6902 27.4178 48.3195 28.4602 47.5782 29.41C46.8369 30.383 45.7365 31.1591 44.2771 31.7382C42.8408 32.3405 41.0454 32.6417 38.891 32.6417C37.0377 32.6417 35.5667 32.4448 34.4779 32.051C33.3891 31.6803 32.613 31.1938 32.1497 30.5915C31.7095 29.9892 31.4895 29.3521 31.4895 28.6803C31.4895 27.8463 31.7675 27.0008 32.3234 26.1436C32.9026 25.3097 33.6092 24.6379 34.4431 24.1282C33.725 23.8502 33.2038 23.4911 32.8794 23.051C32.5551 22.6108 32.3929 22.1359 32.3929 21.6263C32.3929 21.163 32.5088 20.7344 32.7404 20.3406C32.9953 19.9236 33.2964 19.5066 33.6439 19.0896L34.7906 17.6302C33.0995 16.6572 32.2539 15.1282 32.2539 13.0433C32.2539 11.3754 32.8447 10.0202 34.0261 8.97769C35.2308 7.93522 36.9914 7.41399 39.308 7.41399C40.4894 7.41399 41.5203 7.55299 42.4006 7.83098C43.3041 8.10897 44.0454 8.50279 44.6245 9.01244C45.3659 8.89661 46.0608 8.71128 46.7095 8.45646C47.3813 8.17846 47.9836 7.80781 48.5164 7.34449L49.0029 7.69198V9.46417H45.0763C45.9103 10.3908 46.3272 11.5839 46.3272 13.0433C46.3272 14.6649 45.7249 16.0085 44.5203 17.0742C43.3388 18.1166 41.5898 18.6379 39.2732 18.6379ZM39.2385 17.9429C40.1651 17.9429 40.8369 17.5607 41.2539 16.7962C41.6941 16.0317 41.9141 14.7576 41.9141 12.9738C41.9141 11.19 41.6941 9.93907 41.2539 9.22093C40.8369 8.47962 40.1883 8.10897 39.308 8.10897C38.4508 8.10897 37.8022 8.4912 37.362 9.25568C36.9219 9.99699 36.7018 11.2595 36.7018 13.0433C36.7018 14.8271 36.8987 16.0896 37.2925 16.8309C37.7095 17.5722 38.3582 17.9429 39.2385 17.9429ZM34.0609 27.5683C34.0609 28.9351 34.4779 29.966 35.3118 30.661C36.169 31.356 37.5126 31.7035 39.3427 31.7035C41.2655 31.7035 42.7134 31.3907 43.6863 30.7652C44.6593 30.1398 45.1458 29.2595 45.1458 28.1243C45.1458 27.4757 44.9025 26.9544 44.4161 26.5606C43.9527 26.1668 43.1535 25.8657 42.0184 25.6572L35.7288 24.4757C35.5435 24.4294 35.3582 24.383 35.1729 24.3367C34.8485 24.8 34.5821 25.3213 34.3736 25.9004C34.1651 26.5027 34.0609 27.0587 34.0609 27.5683Z" fill="white"></path><path d="M53.6332 5.60705C52.8456 5.60705 52.1737 5.3638 51.6178 4.87732C51.0849 4.36767 50.8185 3.73061 50.8185 2.96613C50.8185 2.17849 51.0849 1.54143 51.6178 1.05494C52.1737 0.568457 52.8456 0.325215 53.6332 0.325215C54.4208 0.325215 55.0811 0.568457 55.6139 1.05494C56.1467 1.54143 56.4131 2.17849 56.4131 2.96613C56.4131 3.73061 56.1467 4.36767 55.6139 4.87732C55.0811 5.3638 54.4208 5.60705 53.6332 5.60705ZM49.5328 24.6494V24.302L50.0193 24.163C50.4826 24.024 50.7954 23.8155 50.9575 23.5375C51.1429 23.2595 51.2355 22.8888 51.2355 22.4255V11.5491C51.2355 11.0626 51.1429 10.7036 50.9575 10.4719C50.7954 10.2171 50.4826 10.0433 50.0193 9.95066L49.5328 9.84641V9.49892L55.8919 7.44874L56.2394 7.79623L56.1351 12.7306V22.4603C56.1351 22.9236 56.2162 23.2942 56.3784 23.5722C56.5637 23.8502 56.8764 24.0587 57.3166 24.1977L57.6641 24.302V24.6494H49.5328Z" fill="white"></path><path d="M65.1098 25.1707C63.6272 25.1707 62.4689 24.8 61.6349 24.0587C60.8241 23.3174 60.4187 22.1359 60.4187 20.5143V8.6302H58.0211V8.28271L58.855 8.14372C59.5732 7.98155 60.1871 7.7499 60.6967 7.44874C61.2295 7.14758 61.7508 6.74218 62.2604 6.23253L65.1098 3.07038H65.4573L65.3531 7.93522H69.245V8.6302H65.3183V21.1398C65.3183 21.9506 65.4921 22.5645 65.8396 22.9815C66.2102 23.3985 66.6735 23.607 67.2295 23.607C67.716 23.607 68.1446 23.4911 68.5152 23.2595C68.8859 23.0047 69.2565 22.6688 69.6272 22.2518L69.9747 22.5993C69.5114 23.3869 68.8743 24.0124 68.0635 24.4757C67.2527 24.939 66.2681 25.1707 65.1098 25.1707Z" fill="white"></path><path d="M79.058 25.1707C77.2974 25.1707 75.7684 24.8116 74.4711 24.0935C73.1738 23.3521 72.1661 22.3097 71.448 20.9661C70.753 19.6224 70.4055 18.0471 70.4055 16.2402C70.4055 14.4333 70.7762 12.8696 71.5175 11.5491C72.282 10.2287 73.3128 9.20935 74.6101 8.49121C75.9306 7.77306 77.4132 7.41399 79.058 7.41399C80.7028 7.41399 82.1738 7.77306 83.4711 8.49121C84.7684 9.18618 85.7877 10.1939 86.529 11.5144C87.2935 12.8348 87.6757 14.4101 87.6757 16.2402C87.6757 18.0703 87.3166 19.6572 86.5985 21.0008C85.9035 22.3213 84.9074 23.3521 83.6101 24.0935C82.336 24.8116 80.8186 25.1707 79.058 25.1707ZM79.058 24.4757C79.8688 24.4757 80.5174 24.244 81.0039 23.7807C81.4904 23.3174 81.8379 22.495 82.0464 21.3135C82.2781 20.1321 82.3939 18.4641 82.3939 16.3097C82.3939 14.1321 82.2781 12.4526 82.0464 11.2711C81.8379 10.0897 81.4904 9.26726 81.0039 8.80394C80.5174 8.34063 79.8688 8.10897 79.058 8.10897C78.2472 8.10897 77.587 8.34063 77.0773 8.80394C76.5908 9.26726 76.2317 10.0897 76.0001 11.2711C75.7916 12.4526 75.6873 14.1321 75.6873 16.3097C75.6873 18.4641 75.7916 20.1321 76.0001 21.3135C76.2317 22.495 76.5908 23.3174 77.0773 23.7807C77.587 24.244 78.2472 24.4757 79.058 24.4757Z" fill="white"></path><path d="M97.5021 25.1707C95.7414 25.1707 94.2125 24.8116 92.9152 24.0935C91.6179 23.3521 90.6102 22.3097 89.892 20.9661C89.1971 19.6224 88.8496 18.0471 88.8496 16.2402C88.8496 14.4333 89.2202 12.8696 89.9615 11.5491C90.726 10.2287 91.7569 9.20935 93.0542 8.49121C94.3746 7.77306 95.8573 7.41399 97.5021 7.41399C99.1468 7.41399 100.618 7.77306 101.915 8.49121C103.212 9.18618 104.232 10.1939 104.973 11.5144C105.738 12.8348 106.12 14.4101 106.12 16.2402C106.12 18.0703 105.761 19.6572 105.043 21.0008C104.348 22.3213 103.351 23.3521 102.054 24.0935C100.78 24.8116 99.2627 25.1707 97.5021 25.1707ZM97.5021 24.4757C98.3129 24.4757 98.9615 24.244 99.448 23.7807C99.9345 23.3174 100.282 22.495 100.49 21.3135C100.722 20.1321 100.838 18.4641 100.838 16.3097C100.838 14.1321 100.722 12.4526 100.49 11.2711C100.282 10.0897 99.9345 9.26726 99.448 8.80394C98.9615 8.34063 98.3129 8.10897 97.5021 8.10897C96.6912 8.10897 96.031 8.34063 95.5214 8.80394C95.0349 9.26726 94.6758 10.0897 94.4441 11.2711C94.2356 12.4526 94.1314 14.1321 94.1314 16.3097C94.1314 18.4641 94.2356 20.1321 94.4441 21.3135C94.6758 22.495 95.0349 23.3174 95.5214 23.7807C96.031 24.244 96.6912 24.4757 97.5021 24.4757Z" fill="white"></path><path d="M106.92 24.6494V24.302L107.337 24.163C108.171 23.885 108.587 23.3058 108.587 22.4255V3.83485C108.587 3.37154 108.495 3.02405 108.309 2.79239C108.124 2.53756 107.8 2.35223 107.337 2.2364L106.885 2.13216V1.78467L113.244 0.290466L113.661 0.603206L113.522 5.46805V17.3522C113.522 18.2093 113.522 19.0665 113.522 19.9236C113.545 20.7576 113.557 21.5915 113.557 22.4255C113.557 22.8888 113.649 23.2711 113.835 23.5722C114.02 23.8502 114.333 24.0587 114.773 24.1977L115.225 24.302V24.6494H106.92Z" fill="white"></path><path d="M122.075 25.1707C120.94 25.1707 119.92 25.0317 119.017 24.7537C118.113 24.4989 117.279 24.1745 116.515 23.7807L116.55 19.6456H116.897L118.079 21.7305C118.588 22.6572 119.144 23.3521 119.746 23.8155C120.372 24.2556 121.16 24.4757 122.109 24.4757C123.221 24.4757 124.113 24.2325 124.785 23.746C125.48 23.2363 125.828 22.5645 125.828 21.7305C125.828 20.9661 125.584 20.3406 125.098 19.8541C124.611 19.3676 123.708 18.9275 122.387 18.5336L120.928 18.0819C119.515 17.6649 118.403 17.0163 117.592 16.136C116.781 15.2557 116.376 14.1784 116.376 12.9043C116.376 11.3754 116.978 10.0781 118.183 9.01244C119.387 7.94681 121.113 7.41399 123.36 7.41399C124.264 7.41399 125.109 7.51824 125.897 7.72673C126.708 7.91206 127.484 8.20163 128.225 8.59545L128.017 12.3483H127.669L126.453 10.1939C126.013 9.42943 125.573 8.89661 125.133 8.59545C124.716 8.27113 124.079 8.10897 123.221 8.10897C122.434 8.10897 121.692 8.32904 120.997 8.7692C120.302 9.20935 119.955 9.83483 119.955 10.6456C119.955 11.4333 120.245 12.0588 120.824 12.5221C121.426 12.9854 122.306 13.414 123.465 13.8078L125.028 14.2595C126.696 14.7692 127.889 15.4757 128.607 16.3792C129.326 17.2595 129.685 18.3251 129.685 19.5761C129.685 21.2672 129.013 22.6224 127.669 23.6417C126.349 24.661 124.484 25.1707 122.075 25.1707Z" fill="white"></path><path d="M134.545 25.1707C133.711 25.1707 133.005 24.8811 132.425 24.302C131.846 23.7228 131.557 23.0278 131.557 22.217C131.557 21.4062 131.846 20.6996 132.425 20.0973C133.005 19.495 133.711 19.1939 134.545 19.1939C135.379 19.1939 136.086 19.495 136.665 20.0973C137.244 20.6996 137.534 21.4062 137.534 22.217C137.534 23.0278 137.244 23.7228 136.665 24.302C136.086 24.8811 135.379 25.1707 134.545 25.1707Z" fill="white"></path></svg>