<svg xmlns="http://www.w3.org/2000/svg" id="Layer_1" width="136.65" height="32.35" viewBox="0 0 136.65 32.35"><defs><style>.cls-1{fill:#181818;}</style></defs><path class="cls-1" d="M0,24.36v-.35l.73-.28c.74-.3,1.11-.89,1.11-1.77V3.82c0-.93-.37-1.52-1.11-1.77l-.73-.28v-.35H9.17c2.46,0,4.56,.46,6.32,1.39,1.78,.9,3.15,2.21,4.1,3.93,.97,1.69,1.46,3.73,1.46,6.12s-.52,4.51-1.56,6.22c-1.04,1.71-2.5,3.02-4.38,3.93-1.85,.9-4.04,1.36-6.57,1.36H0Zm7.05-.69h1.49c1.67,0,3.01-.32,4.03-.97,1.02-.67,1.76-1.78,2.22-3.34,.49-1.58,.73-3.73,.73-6.46s-.24-4.88-.73-6.43c-.46-1.58-1.19-2.69-2.19-3.34-1-.67-2.31-1.01-3.93-1.01h-1.63V23.66Z"></path><path class="cls-1" d="M25.94,5.32c-.79,0-1.46-.24-2.02-.73-.53-.51-.8-1.15-.8-1.91s.27-1.42,.8-1.91c.56-.49,1.23-.73,2.02-.73s1.45,.24,1.98,.73c.53,.49,.8,1.12,.8,1.91s-.27,1.4-.8,1.91c-.53,.49-1.19,.73-1.98,.73Zm-4.1,19.04v-.35l.49-.14c.46-.14,.78-.35,.94-.63,.19-.28,.28-.65,.28-1.11V11.26c0-.49-.09-.85-.28-1.08-.16-.25-.48-.43-.94-.52l-.49-.1v-.35l6.36-2.05,.35,.35-.1,4.93v9.73c0,.46,.08,.83,.24,1.11,.19,.28,.5,.49,.94,.63l.35,.1v.35h-8.13Z"></path><path class="cls-1" d="M38.39,18.35c-1.6,0-2.95-.27-4.07-.8v1.18c0,.72,.36,1.15,1.08,1.29l6.53,1.22c1.09,.21,2.07,.49,2.95,.83,.88,.32,1.59,.8,2.12,1.42,.53,.6,.8,1.44,.8,2.5,0,1.14-.37,2.18-1.11,3.13-.74,.97-1.84,1.75-3.3,2.33-1.44,.6-3.23,.9-5.39,.9-1.85,0-3.32-.2-4.41-.59-1.09-.37-1.86-.86-2.33-1.46-.44-.6-.66-1.24-.66-1.91,0-.83,.28-1.68,.83-2.54,.58-.83,1.29-1.51,2.12-2.02-.72-.28-1.24-.64-1.56-1.08-.32-.44-.49-.92-.49-1.42,0-.46,.12-.89,.35-1.29,.25-.42,.56-.83,.9-1.25l1.15-1.46c-1.69-.97-2.54-2.5-2.54-4.59,0-1.67,.59-3.02,1.77-4.07,1.2-1.04,2.97-1.56,5.28-1.56,1.18,0,2.21,.14,3.09,.42,.9,.28,1.64,.67,2.22,1.18,.74-.12,1.44-.3,2.08-.56,.67-.28,1.27-.65,1.81-1.11l.49,.35v1.77h-3.93c.83,.93,1.25,2.12,1.25,3.58,0,1.62-.6,2.97-1.81,4.03-1.18,1.04-2.93,1.56-5.25,1.56Zm-.03-.69c.93,0,1.6-.38,2.02-1.15,.44-.76,.66-2.04,.66-3.82s-.22-3.03-.66-3.75c-.42-.74-1.07-1.11-1.95-1.11s-1.51,.38-1.95,1.15c-.44,.74-.66,2-.66,3.79s.2,3.05,.59,3.79c.42,.74,1.07,1.11,1.95,1.11Zm-5.18,9.63c0,1.37,.42,2.4,1.25,3.09,.86,.7,2.2,1.04,4.03,1.04,1.92,0,3.37-.31,4.34-.94,.97-.63,1.46-1.51,1.46-2.64,0-.65-.24-1.17-.73-1.56-.46-.39-1.26-.69-2.4-.9l-6.29-1.18c-.19-.05-.37-.09-.56-.14-.32,.46-.59,.98-.8,1.56-.21,.6-.31,1.16-.31,1.67Z"></path><path class="cls-1" d="M52.75,5.32c-.79,0-1.46-.24-2.02-.73-.53-.51-.8-1.15-.8-1.91s.27-1.42,.8-1.91c.56-.49,1.23-.73,2.02-.73s1.45,.24,1.98,.73c.53,.49,.8,1.12,.8,1.91s-.27,1.4-.8,1.91c-.53,.49-1.19,.73-1.98,.73Zm-4.1,19.04v-.35l.49-.14c.46-.14,.78-.35,.94-.63,.19-.28,.28-.65,.28-1.11V11.26c0-.49-.09-.85-.28-1.08-.16-.25-.47-.43-.94-.52l-.49-.1v-.35l6.36-2.05,.35,.35-.1,4.93v9.73c0,.46,.08,.83,.24,1.11,.19,.28,.5,.49,.94,.63l.35,.1v.35h-8.13Z"></path><path class="cls-1" d="M64.22,24.88c-1.48,0-2.64-.37-3.47-1.11-.81-.74-1.22-1.92-1.22-3.54V8.34h-2.4v-.35l.83-.14c.72-.16,1.33-.39,1.84-.69,.53-.3,1.05-.71,1.56-1.22l2.85-3.16h.35l-.1,4.86h3.89v.69h-3.93v12.51c0,.81,.17,1.42,.52,1.84,.37,.42,.83,.63,1.39,.63,.49,0,.92-.12,1.29-.35,.37-.25,.74-.59,1.11-1.01l.35,.35c-.46,.79-1.1,1.41-1.91,1.88-.81,.46-1.8,.69-2.95,.69Z"></path><path class="cls-1" d="M78.17,24.88c-1.76,0-3.29-.36-4.59-1.08-1.3-.74-2.31-1.78-3.02-3.13-.69-1.34-1.04-2.92-1.04-4.73s.37-3.37,1.11-4.69c.76-1.32,1.8-2.34,3.09-3.06,1.32-.72,2.8-1.08,4.45-1.08s3.12,.36,4.41,1.08c1.3,.69,2.32,1.7,3.06,3.02,.76,1.32,1.15,2.9,1.15,4.73s-.36,3.42-1.08,4.76c-.69,1.32-1.69,2.35-2.99,3.09-1.27,.72-2.79,1.08-4.55,1.08Zm0-.69c.81,0,1.46-.23,1.95-.69,.49-.46,.83-1.29,1.04-2.47,.23-1.18,.35-2.85,.35-5s-.12-3.86-.35-5.04c-.21-1.18-.56-2-1.04-2.47-.49-.46-1.14-.69-1.95-.69s-1.47,.23-1.98,.69c-.49,.46-.85,1.29-1.08,2.47-.21,1.18-.31,2.86-.31,5.04s.1,3.82,.31,5c.23,1.18,.59,2,1.08,2.47,.51,.46,1.17,.69,1.98,.69Z"></path><path class="cls-1" d="M96.62,24.88c-1.76,0-3.29-.36-4.59-1.08-1.3-.74-2.31-1.78-3.02-3.13-.69-1.34-1.04-2.92-1.04-4.73s.37-3.37,1.11-4.69c.76-1.32,1.8-2.34,3.09-3.06,1.32-.72,2.8-1.08,4.45-1.08s3.12,.36,4.41,1.08c1.3,.69,2.32,1.7,3.06,3.02,.76,1.32,1.15,2.9,1.15,4.73s-.36,3.42-1.08,4.76c-.69,1.32-1.69,2.35-2.99,3.09-1.27,.72-2.79,1.08-4.55,1.08Zm0-.69c.81,0,1.46-.23,1.95-.69,.49-.46,.83-1.29,1.04-2.47,.23-1.18,.35-2.85,.35-5s-.12-3.86-.35-5.04c-.21-1.18-.56-2-1.04-2.47-.49-.46-1.14-.69-1.95-.69s-1.47,.23-1.98,.69c-.49,.46-.85,1.29-1.08,2.47-.21,1.18-.31,2.86-.31,5.04s.1,3.82,.31,5c.23,1.18,.59,2,1.08,2.47,.51,.46,1.17,.69,1.98,.69Z"></path><path class="cls-1" d="M106.03,24.36v-.35l.42-.14c.83-.28,1.25-.86,1.25-1.74V3.54c0-.46-.09-.81-.28-1.04-.18-.25-.51-.44-.97-.56l-.45-.1v-.35l6.36-1.49,.42,.31-.14,4.86v14.46c.02,.83,.03,1.67,.03,2.5,0,.46,.09,.85,.28,1.15,.18,.28,.5,.49,.94,.63l.45,.1v.35h-8.31Z"></path><path class="cls-1" d="M121.19,24.88c-1.13,0-2.15-.14-3.06-.42-.9-.25-1.74-.58-2.5-.97l.04-4.14h.35l1.18,2.08c.51,.93,1.06,1.62,1.67,2.09,.63,.44,1.41,.66,2.36,.66,1.11,0,2-.24,2.68-.73,.69-.51,1.04-1.18,1.04-2.02,0-.76-.24-1.39-.73-1.88-.49-.49-1.39-.93-2.71-1.32l-1.46-.45c-1.41-.42-2.53-1.07-3.34-1.95-.81-.88-1.22-1.96-1.22-3.23,0-1.53,.6-2.83,1.81-3.89,1.2-1.07,2.93-1.6,5.18-1.6,.9,0,1.75,.1,2.54,.31,.81,.19,1.59,.47,2.33,.87l-.21,3.75h-.35l-1.22-2.15c-.44-.76-.88-1.3-1.32-1.6-.42-.32-1.05-.49-1.91-.49-.79,0-1.53,.22-2.22,.66-.69,.44-1.04,1.07-1.04,1.88s.29,1.41,.87,1.88c.6,.46,1.48,.89,2.64,1.29l1.56,.45c1.67,.51,2.86,1.22,3.58,2.12,.72,.88,1.08,1.95,1.08,3.2,0,1.69-.67,3.05-2.02,4.07-1.32,1.02-3.18,1.53-5.59,1.53Z"></path><path class="cls-1" d="M133.66,24.88c-.83,0-1.54-.29-2.12-.87-.58-.58-.87-1.27-.87-2.09s.29-1.52,.87-2.12c.58-.6,1.29-.9,2.12-.9s1.54,.3,2.12,.9c.58,.6,.87,1.31,.87,2.12s-.29,1.51-.87,2.09c-.58,.58-1.29,.87-2.12,.87Z"></path></svg>