<svg xmlns="http://www.w3.org/2000/svg" viewBox="0 0 59 59"><path fill-rule="evenodd" clip-rule="evenodd" d="M53.714 29.357c0 13.452-10.905 24.357-24.357 24.357S5 42.81 5 29.357 15.905 5 29.357 5s24.357 10.905 24.357 24.357Zm5 0c0 16.214-13.143 29.357-29.357 29.357C13.144 58.714 0 45.571 0 29.357 0 13.144 13.144 0 29.357 0c16.214 0 29.357 13.144 29.357 29.357Zm-29.35 1.033c5.988 0 10.843 4.855 10.843 10.844h5c0-8.75-7.093-15.844-15.844-15.844-8.75 0-15.843 7.094-15.843 15.844h5c0-5.989 4.855-10.844 10.843-10.844ZM16.458 15.082h7.14v7.141h-7.14v-7.141Zm25.809 0h-7.141v7.141h7.14v-7.141Z"></path></svg>