<svg xmlns="http://www.w3.org/2000/svg" xmlns:xlink="http://www.w3.org/1999/xlink" id="Layer_1" x="0px" y="0px" viewBox="0 0 92.7 21.4" style="enable-background:new 0 0 92.7 21.4;" xml:space="preserve"><style type="text/css">	.st0{fill:#FFFFFF;}</style><path class="st0" d="M12.3,11c-0.6-0.5-1.3-0.8-2-1.1C9.6,9.6,8.9,9.3,8.2,9.1c-0.7-0.3-1.4-0.5-2-0.8C5.6,7.9,5.1,7.6,4.7,7.1 c-0.4-0.4-0.5-1-0.5-1.7c0-0.9,0.3-1.6,1-2c0.7-0.5,1.6-0.8,2.7-0.8c0.9,0,1.7,0.2,2.4,0.5c0.7,0.4,1.4,0.9,2,1.6l1.9-1.9 c-0.7-0.9-1.6-1.6-2.6-2.1C10.5,0.3,9.2,0,7.9,0C6.7,0,5.5,0.2,4.5,0.7c-1,0.4-1.8,1.1-2.3,1.9c-0.6,0.8-0.8,1.8-0.8,3 c0,1.1,0.2,1.9,0.5,2.6C2.3,8.9,2.8,9.5,3.4,10c0.6,0.4,1.3,0.8,2,1.1c0.7,0.3,1.4,0.6,2.2,0.8c0.7,0.2,1.4,0.5,2,0.8 c0.6,0.3,1.1,0.7,1.5,1.2c0.4,0.5,0.5,1.1,0.5,1.9c0,0.9-0.4,1.7-1.1,2.2c-0.7,0.5-1.7,0.8-3,0.8s-2.3-0.2-3.2-0.7 c-0.9-0.5-1.6-1.2-2.3-2.1L0,17.9c0.9,1.1,1.9,2,3.1,2.6s2.6,0.9,4.2,0.9c2.2,0,3.9-0.5,5.1-1.6c1.3-1,1.9-2.5,1.9-4.3 c0-1.1-0.2-2-0.6-2.7C13.4,12.1,12.9,11.5,12.3,11z"></path><polygon class="st0" points="31,9.1 20.4,9.1 20.4,0.3 17.5,0.3 17.5,21.1 20.4,21.1 20.4,11.6 31,11.6 31,21.1 33.8,21.1 33.8,0.3  31,0.3 "></polygon><path class="st0" d="M45.1,0.3l-8.5,20.8h3l1.9-4.7h9.2l1.9,4.7h3.1L47.2,0.3H45.1z M42.5,13.9l3.7-9.1l3.6,9.1H42.5z"></path><path class="st0" d="M69.3,11.3c1-0.5,1.7-1.2,2.2-2.1c0.5-0.9,0.8-1.9,0.8-3.1s-0.3-2.2-0.8-3c-0.5-0.9-1.3-1.6-2.2-2.1 c-1-0.5-2.1-0.8-3.4-0.8h-7.7v20.8H61v-9.1h1.8l7.3,9.1h3.6L66.3,12C67.4,12,68.4,11.8,69.3,11.3z M61,2.8h4.7c1.2,0,2.2,0.3,2.8,1 c0.7,0.7,1,1.5,1,2.5c0,1.1-0.3,1.9-1,2.5c-0.7,0.6-1.6,0.9-2.8,0.9H61V2.8z"></path><polygon class="st0" points="92.7,21.1 82.1,10.2 92.4,0.3 88.7,0.3 78.9,9.8 78.9,0.3 76.1,0.3 76.1,21.1 78.9,21.1 78.9,10.7  88.9,21.1 "></polygon></svg>